<?xml version="1.0" standalone="no"?><!DOCTYPE svg PUBLIC "-//W3C//DTD SVG 1.1//EN" "http://www.w3.org/Graphics/SVG/1.1/DTD/svg11.dtd"><svg t="1689485945628" class="icon" viewBox="0 0 1024 1024" version="1.1" xmlns="http://www.w3.org/2000/svg" p-id="11729" xmlns:xlink="http://www.w3.org/1999/xlink" width="200" height="200"><path d="M512 815.786667c-6.826667 0-17.066667-3.413333-23.893333-10.24L119.466667 471.04c-10.24-6.826667-17.066667-23.893333-17.066667-37.546667V334.506667c0-17.066667 10.24-34.133333 23.893333-44.373334 17.066667-10.24 34.133333-10.24 51.2 0l283.306667 157.013334c17.066667 10.24 23.893333 30.72 13.653333 47.786666-10.24 17.066667-30.72 23.893333-47.786666 13.653334L170.666667 361.813333v64.853334l341.333333 310.613333 341.333333-310.613333V334.506667l-252.586666 170.666666c-17.066667 10.24-37.546667 6.826667-47.786667-10.24-10.24-17.066667-6.826667-37.546667 10.24-47.786666l279.893333-187.733334c17.066667-10.24 37.546667-10.24 51.2-3.413333 17.066667 10.24 27.306667 27.306667 27.306667 47.786667v129.706666c0 13.653333-6.826667 27.306667-17.066667 37.546667l-368.64 337.92c-6.826667 6.826667-17.066667 6.826667-23.893333 6.826667z" fill="#9850FF" p-id="11730"></path></svg>