<?xml version="1.0" standalone="no"?><!DOCTYPE svg PUBLIC "-//W3C//DTD SVG 1.1//EN" "http://www.w3.org/Graphics/SVG/1.1/DTD/svg11.dtd"><svg t="1689412136623" class="icon" viewBox="0 0 1024 1024" version="1.1" xmlns="http://www.w3.org/2000/svg" p-id="8158" xmlns:xlink="http://www.w3.org/1999/xlink" width="200" height="200"><path d="M365.67 498L70.65 793a89 89 0 0 1-7.36-35.57V266.54a88.79 88.79 0 0 1 6.6-33.54z" fill="#142E4F" p-id="8159"></path><path d="M498.94 544.82L104.38 191.3A89.13 89.13 0 0 1 153 176.87h731.1a88.56 88.56 0 0 1 48.65 14.48L615.08 476l-2.08 1.78-74.88 67.05a29.38 29.38 0 0 1-39.18-0.01z" fill="#FF9600" p-id="8160"></path><path d="M631.13 534.11l299.78 299.78a88.47 88.47 0 0 1-46.81 13.24H153a88.33 88.33 0 0 1-46.76-13.24L406 534.11l94.48 84.65a27 27 0 0 0 36.11 0zM973.78 266.54v490.92a89.06 89.06 0 0 1-7.35 35.54l-295-295 295.75-265a88.68 88.68 0 0 1 6.6 33.54z" fill="#142E4F" p-id="8161"></path></svg>