<?xml version="1.0" standalone="no"?><!DOCTYPE svg PUBLIC "-//W3C//DTD SVG 1.1//EN" "http://www.w3.org/Graphics/SVG/1.1/DTD/svg11.dtd"><svg t="1689684455462" class="icon" viewBox="0 0 1024 1024" version="1.1" xmlns="http://www.w3.org/2000/svg" p-id="27613" xmlns:xlink="http://www.w3.org/1999/xlink" width="200" height="200"><path d="M746.8 517.5l-119.4-62.8L508 517.5l22.8-132.9-96.6-94.2L567.7 271l59.7-121 59.7 121 133.5 19.4-96.6 94.2 22.8 132.9z m-119.4-69.6l111.4 58.5-21.3-124 90.1-87.8-124.5-18.1-55.7-112.8-55.7 112.8-124.5 18.1 90.1 87.8-21.3 124 111.4-58.5z" p-id="27614" fill="#7065EC"></path><path d="M511.3 518.8l-46.7-126.5L333.8 359l105.9-83.5-8.7-134.6 112.2 74.9 125.3-49.9-36.6 129.8 86.2 103.7-134.8 5.3-72 114.1zM347.2 356.2l121.9 31 43.6 118 67.2-106.4 125.7-5-80.4-96.8 34.1-121-116.9 46.6-104.6-69.9 8.2 125.6-98.8 77.9z" p-id="27615" fill="#7065EC"></path><path d="M514.8 518.2L411 432l-129.8 36.6 49.9-125.3-74.9-112.2 134.6 8.8L474.4 134l33.2 130.7 126.5 46.7-114.1 72-5.2 134.8z m-102.3-92.9l96.8 80.4 5-125.7 106.4-67.2-118-43.6-31-121.9-77.9 98.8-125.6-8.2 69.9 104.6-46.6 116.9 121-34.1z" p-id="27616" fill="#7065EC"></path><path d="M290.4 589.8L271 456.3l-121-59.7 121-59.7 19.4-133.5 94.1 96.6 132.9-22.8-62.8 119.4L517.5 516l-132.9-22.8-94.2 96.6zM163.7 396.6l112.8 55.7 18.1 124.5 87.8-90.1 124 21.3-58.5-111.4 58.5-111.4-124 21.3-87.8-90.1-18.1 124.5-112.8 55.7z" p-id="27617" fill="#7065EC"></path><path d="M359 690.2l-83.5-105.9-134.6 8.7 74.9-112.2-49.9-125.3 129.8 36.6 103.7-86.2 5.3 134.8 114.1 72-126.5 46.7L359 690.2zM278.3 578l77.9 98.8 31-121.9 118-43.6-106.4-67.2-5-125.7-96.8 80.4-121-34.1 46.6 116.9-69.9 104.6 125.6-8.2z" p-id="27618" fill="#7065EC"></path><path d="M231.1 767.7l8.8-134.6L134 549.6l130.7-33.2 46.7-126.5 72 114.1 134.8 5.3L432 613l36.6 129.8-125.3-49.9-112.2 74.8z m-83.7-215.3l98.8 77.9-8.2 125.6L342.6 686l116.9 46.6-34.1-121.1 80.4-96.8-125.7-5-67.2-106.4-43.6 118-121.9 31.1z" p-id="27619" fill="#7065EC"></path><path d="M396.6 873.9l-59.7-121-133.5-19.4 96.6-94.1-22.8-132.9 119.4 62.8L516 506.5l-22.8 132.9 96.6 94.1L456.3 753l-59.7 120.9zM216.4 729.4l124.5 18.1 55.7 112.8 55.7-112.8 124.5-18.1-90.1-87.8 21.3-124-111.4 58.5-111.4-58.5 21.3 124-90.1 87.8z" p-id="27620" fill="#7065EC"></path><path d="M593 883.1l-112.2-74.9-125.3 49.9 36.6-129.8-86.2-103.7 134.8-5.3 72-114.1 46.7 126.5L690.2 665l-105.9 83.5 8.7 134.6z m-111.4-81.7l104.6 69.9-8.2-125.6 98.8-77.9-121.9-31-43.6-118-67.2 106.4-125.7 5 80.4 96.8-34.1 121 116.9-46.6z" p-id="27621" fill="#7065EC"></path><path d="M549.6 890l-33.2-130.7-126.5-46.7 114.1-72 5.3-134.8L613 592l129.8-36.6-49.9 125.3 74.9 112.2-134.6-8.8L549.6 890zM403.4 711.1l118 43.6 31 121.9 77.9-98.8 125.6 8.2L686 681.4l46.6-116.9-121.1 34.1-96.8-80.4-5 125.7-106.3 67.2z" p-id="27622" fill="#7065EC"></path><path d="M733.6 820.6L639.4 724l-132.9 22.8 62.8-119.4L506.5 508l132.9 22.8 94.2-96.6L753 567.7l121 59.7-121 59.7-19.4 133.5z m-92.1-103.1l87.8 90.1 18.1-124.5 112.8-55.7-112.8-55.7-18.1-124.5-87.8 90.1-124-21.3L576 627.4l-58.5 111.4 124-21.3z" p-id="27623" fill="#7065EC"></path><path d="M624.6 718.1l-5.3-134.8-114.1-72 126.5-46.7L665 333.8l83.5 105.9 134.6-8.8-74.9 112.2 49.9 125.3-129.8-36.6-103.7 86.3zM518.8 512.7l106.4 67.2 5 125.7 96.8-80.4 121 34.1-46.6-116.9 69.9-104.6-125.6 8.2-77.9-98.8-31 121.9-118 43.6z" p-id="27624" fill="#7065EC"></path><path d="M712.6 634.2l-72-114.1-134.8-5.3L592 411l-36.6-129.8 125.3 49.9 112.2-74.9-8.8 134.6L890 474.4l-130.7 33.2-46.7 126.6z m-194.4-125l125.7 5 67.2 106.4 43.6-118 121.9-31-98.8-77.9 8.2-125.6L681.4 338l-116.9-46.6 34.1 121.1-80.4 96.7z" p-id="27625" fill="#7065EC"></path></svg>